<svg width="61" height="62" viewBox="0 0 61 62" fill="none" xmlns="http://www.w3.org/2000/svg">
<path d="M29.9995 1.06724C13.4998 1.16225 0.0777356 14.7398 0.172746 31.2395C0.267756 47.7392 13.8453 61.1613 30.345 61.0663C46.8447 60.9712 60.2668 47.3937 60.1718 30.894C60.0767 14.3943 46.4992 0.972234 29.9995 1.06724ZM30.3104 55.0663C17.0807 55.1425 6.24883 44.4347 6.17265 31.2049C6.09647 17.9752 16.8043 7.14333 30.0341 7.06715C43.2638 6.99096 54.0957 17.6988 54.1719 30.9286C54.248 44.1583 43.5402 54.9902 30.3104 55.0663ZM31.5859 16.0584L27.0859 16.0843L27.1896 34.084L42.8446 43.594L45.2221 39.6802L31.6757 31.6581L31.5859 16.0584Z" fill="#2734B6" fill-opacity="0.8"/>
</svg>
