<svg width="443" height="431" viewBox="0 0 443 431" fill="none" xmlns="http://www.w3.org/2000/svg">
<g filter="url(#filter0_d_672_219)">
<path d="M220.249 1.21377C100.762 1.88134 3.56294 97.2813 4.25098 213.214C4.93902 329.146 103.264 423.454 222.751 422.786C342.238 422.119 439.437 326.719 438.749 210.786C438.061 94.8538 339.736 0.546196 220.249 1.21377ZM222.501 380.629C126.694 381.164 48.2525 305.928 47.7008 212.971C47.1491 120.014 124.692 43.9063 220.499 43.371C316.306 42.8357 394.748 118.072 395.299 211.029C395.851 303.986 318.308 380.094 222.501 380.629ZM231.737 106.546L199.15 106.728L199.9 233.2L313.27 300.02L330.487 272.521L232.387 216.155L231.737 106.546Z" fill="white"/>
</g>
<defs>
<filter id="filter0_d_672_219" x="0.247375" y="1.21024" width="442.505" height="429.579" filterUnits="userSpaceOnUse" color-interpolation-filters="sRGB">
<feFlood flood-opacity="0" result="BackgroundImageFix"/>
<feColorMatrix in="SourceAlpha" type="matrix" values="0 0 0 0 0 0 0 0 0 0 0 0 0 0 0 0 0 0 127 0" result="hardAlpha"/>
<feOffset dy="4"/>
<feGaussianBlur stdDeviation="2"/>
<feComposite in2="hardAlpha" operator="out"/>
<feColorMatrix type="matrix" values="0 0 0 0 0 0 0 0 0 0 0 0 0 0 0 0 0 0 0.25 0"/>
<feBlend mode="normal" in2="BackgroundImageFix" result="effect1_dropShadow_672_219"/>
<feBlend mode="normal" in="SourceGraphic" in2="effect1_dropShadow_672_219" result="shape"/>
</filter>
</defs>
</svg>
