<?xml version="1.0" standalone="no"?>
<!DOCTYPE svg PUBLIC "-//W3C//DTD SVG 20010904//EN"
 "http://www.w3.org/TR/2001/REC-SVG-20010904/DTD/svg10.dtd">
<svg version="1.0" xmlns="http://www.w3.org/2000/svg"
 width="1914.000000pt" height="521.000000pt" viewBox="0 0 1914.000000 521.000000"
 preserveAspectRatio="xMidYMid meet">

<g transform="translate(0.000000,521.000000) scale(0.100000,-0.100000)"
fill="#2734B6CC" stroke="none">
<path d="M10710 3701 c-86 -28 -160 -91 -201 -171 -33 -67 -38 -186 -10 -261
29 -75 88 -141 159 -176 49 -24 69 -28 142 -28 73 0 93 4 142 28 71 35 137
107 162 175 25 73 20 199 -12 264 -30 60 -90 121 -150 149 -50 25 -184 36
-232 20z"/>
<path d="M1613 3549 c-50 -4 -145 -20 -209 -34 -1111 -250 -1703 -1453 -1220
-2480 124 -264 335 -515 576 -688 114 -80 340 -196 465 -236 526 -169 1072
-95 1530 206 666 439 952 1265 704 2028 -42 126 -156 352 -236 465 -87 122
-301 336 -423 423 -118 83 -343 196 -475 237 -242 76 -465 101 -712 79z m444
-368 c272 -56 518 -187 713 -381 111 -110 174 -189 240 -304 139 -243 200
-493 187 -775 -30 -652 -505 -1198 -1154 -1328 -124 -24 -405 -24 -526 0 -432
87 -811 375 -1006 765 -101 201 -145 396 -145 637 0 238 37 399 139 610 180
373 525 656 926 760 185 48 435 55 626 16z"/>
<path d="M1605 2143 c6 -475 8 -529 23 -541 10 -7 170 -106 357 -219 187 -114
386 -234 441 -269 l102 -62 66 108 c36 60 66 113 66 117 0 4 -177 112 -393
240 l-392 231 -6 164 c-3 89 -7 297 -8 461 l-1 297 -131 0 -131 0 7 -527z"/>
<path d="M3900 1810 l0 -1560 250 0 250 0 0 1560 0 1560 -250 0 -250 0 0
-1560z"/>
<path d="M7840 3165 l0 -205 420 0 420 0 0 -1355 0 -1355 255 0 255 0 0 1355
0 1355 415 0 415 0 0 205 0 205 -1090 0 -1090 0 0 -205z"/>
<path d="M6195 2759 c-100 -13 -207 -44 -302 -89 -102 -48 -161 -88 -240 -164
l-63 -59 0 141 0 142 -255 0 -255 0 0 -1240 0 -1240 255 0 254 0 3 778 c3 761
4 779 25 853 34 119 77 195 157 275 90 90 181 136 316 160 298 52 565 -70 680
-311 66 -140 64 -100 67 -968 l4 -787 249 0 250 0 0 809 c0 894 0 896 -64
1084 -40 117 -110 236 -190 323 -200 219 -554 335 -891 293z"/>
<path d="M12845 2759 c-142 -17 -317 -82 -435 -162 -25 -17 -73 -58 -107 -91
l-63 -59 0 141 0 142 -255 0 -255 0 0 -1240 0 -1240 255 0 254 0 3 783 c3 710
5 788 21 842 73 249 236 400 477 441 217 37 417 -15 553 -145 103 -97 162
-214 186 -368 7 -48 11 -318 11 -812 l0 -741 249 0 250 0 4 768 c4 861 2 836
79 992 72 149 201 253 368 297 45 12 103 17 190 16 107 0 137 -4 207 -27 153
-50 266 -148 334 -291 73 -152 72 -130 76 -987 l4 -768 250 0 250 0 -4 828
c-4 904 -2 874 -65 1057 -55 160 -164 318 -287 418 -77 63 -257 150 -363 177
-189 47 -410 48 -573 1 -233 -67 -439 -209 -546 -378 -40 -63 -49 -72 -58 -58
-83 138 -166 227 -279 303 -196 131 -471 192 -731 161z"/>
<path d="M17310 2759 c-47 -5 -128 -19 -180 -32 -355 -91 -607 -291 -756 -602
-104 -216 -140 -405 -131 -690 8 -243 43 -397 133 -578 164 -332 464 -554 844
-624 142 -26 402 -23 539 6 303 64 543 223 713 473 40 61 128 235 128 257 0 8
-76 11 -272 10 l-273 0 -48 -75 c-121 -186 -313 -273 -576 -262 -90 4 -134 11
-196 32 -196 67 -356 218 -424 401 -19 51 -51 186 -51 216 0 5 384 9 949 9
l949 0 7 77 c4 42 5 151 2 242 -6 179 -21 259 -76 410 -185 508 -678 789
-1281 730z m308 -435 c148 -30 261 -92 363 -197 95 -97 158 -245 159 -369 l0
-48 -685 0 -685 0 0 22 c0 47 34 157 73 238 89 184 296 337 492 363 75 10 213
6 283 -9z"/>
<path d="M10550 1490 l0 -1240 250 0 250 0 0 1240 0 1240 -250 0 -250 0 0
-1240z"/>
</g>
</svg>
