<svg width="222" height="72" viewBox="0 0 222 72" fill="none" xmlns="http://www.w3.org/2000/svg">
<path d="M25.0234 15.3105C13.5653 15.3764 4.24441 24.8053 4.31039 36.2634C4.37637 47.7216 13.8052 57.0424 25.2633 56.9764C36.7215 56.9105 46.0424 47.4816 45.9764 36.0235C45.9104 24.5653 36.4816 15.2445 25.0234 15.3105ZM25.2394 52.8098C16.052 52.8627 8.52989 45.4268 8.47699 36.2394C8.42409 27.0521 15.8601 19.53 25.0474 19.4771C34.2348 19.4242 41.7569 26.8601 41.8098 36.0475C41.8627 45.2348 34.4267 52.7569 25.2394 52.8098ZM26.1251 25.721L23.0001 25.7389L23.0721 38.2387L33.9436 44.8429L35.5947 42.125L26.1874 36.5541L26.1251 25.721Z" fill="white"/>
<path d="M60.5135 20.25V55H54.8135V20.25H60.5135ZM81.8971 27C84.0637 27 85.9971 27.45 87.6971 28.35C89.4304 29.25 90.7804 30.5833 91.7471 32.35C92.7137 34.1167 93.1971 36.25 93.1971 38.75V55H87.5471V39.6C87.5471 37.1333 86.9304 35.25 85.6971 33.95C84.4637 32.6167 82.7804 31.95 80.6471 31.95C78.5137 31.95 76.8137 32.6167 75.5471 33.95C74.3137 35.25 73.6971 37.1333 73.6971 39.6V55H67.9971V27.45H73.6971V30.6C74.6304 29.4667 75.8137 28.5833 77.2471 27.95C78.7137 27.3167 80.2637 27 81.8971 27ZM122.918 20.25V24.9H113.668V55H107.968V24.9H98.6678V20.25H122.918ZM131.59 23.8C130.557 23.8 129.69 23.45 128.99 22.75C128.29 22.05 127.94 21.1833 127.94 20.15C127.94 19.1167 128.29 18.25 128.99 17.55C129.69 16.85 130.557 16.5 131.59 16.5C132.59 16.5 133.44 16.85 134.14 17.55C134.84 18.25 135.19 19.1167 135.19 20.15C135.19 21.1833 134.84 22.05 134.14 22.75C133.44 23.45 132.59 23.8 131.59 23.8ZM134.39 27.45V55H128.69V27.45H134.39ZM175.224 27C177.391 27 179.324 27.45 181.024 28.35C182.757 29.25 184.107 30.5833 185.074 32.35C186.074 34.1167 186.574 36.25 186.574 38.75V55H180.924V39.6C180.924 37.1333 180.307 35.25 179.074 33.95C177.841 32.6167 176.157 31.95 174.024 31.95C171.891 31.95 170.191 32.6167 168.924 33.95C167.691 35.25 167.074 37.1333 167.074 39.6V55H161.424V39.6C161.424 37.1333 160.807 35.25 159.574 33.95C158.341 32.6167 156.657 31.95 154.524 31.95C152.391 31.95 150.691 32.6167 149.424 33.95C148.191 35.25 147.574 37.1333 147.574 39.6V55H141.874V27.45H147.574V30.6C148.507 29.4667 149.691 28.5833 151.124 27.95C152.557 27.3167 154.091 27 155.724 27C157.924 27 159.891 27.4667 161.624 28.4C163.357 29.3333 164.691 30.6833 165.624 32.45C166.457 30.7833 167.757 29.4667 169.524 28.5C171.291 27.5 173.191 27 175.224 27ZM219.077 40.55C219.077 41.5833 219.01 42.5167 218.877 43.35H197.827C197.994 45.55 198.81 47.3167 200.277 48.65C201.744 49.9833 203.544 50.65 205.677 50.65C208.744 50.65 210.91 49.3667 212.177 46.8H218.327C217.494 49.3333 215.977 51.4167 213.777 53.05C211.61 54.65 208.91 55.45 205.677 55.45C203.044 55.45 200.677 54.8667 198.577 53.7C196.51 52.5 194.877 50.8333 193.677 48.7C192.51 46.5333 191.927 44.0333 191.927 41.2C191.927 38.3667 192.494 35.8833 193.627 33.75C194.794 31.5833 196.41 29.9167 198.477 28.75C200.577 27.5833 202.977 27 205.677 27C208.277 27 210.594 27.5667 212.627 28.7C214.66 29.8333 216.244 31.4333 217.377 33.5C218.51 35.5333 219.077 37.8833 219.077 40.55ZM213.127 38.75C213.094 36.65 212.344 34.9667 210.877 33.7C209.41 32.4333 207.594 31.8 205.427 31.8C203.46 31.8 201.777 32.4333 200.377 33.7C198.977 34.9333 198.144 36.6167 197.877 38.75H213.127Z" fill="white"/>
</svg>
